<!-- Generated by IcoMoon.io -->
<svg version="1.1" xmlns="http://www.w3.org/2000/svg" width="1811" height="1024" viewBox="0 0 1811 1024">
<title></title>
<g id="icomoon-ignore">
</g>
<path fill="#000" d="M749.037 209.778v65.185h13.037c7.111 0 13.037 0.474 13.037 1.185 0 2.844-83.911 225.422-86.044 228.030-1.422 2.133-10.193 3.081-27.97 3.081h-25.837v130.37h239.407v-87.704h-42.667v45.037h-151.704v-47.407h36.741l60.919-157.156 60.919-156.919-45.985-2.37v-42.667h225.185v42.667l-23.23 0.711c-20.859 0.474-23.23 1.185-22.044 4.741 0.948 2.133 28.444 73.007 61.156 157.393l59.496 153.6h37.215v47.407l-76.326-0.474-76.563-0.711-0.711-22.044-0.711-21.807h-40.059v87.704h239.407v-130.133l-54.756-1.422-42.43-113.304c-23.467-62.578-42.667-114.489-42.667-115.674s5.926-2.133 13.037-2.133h13.037v-130.37h-312.889v65.185z"></path>
<path fill="#000" d="M889.6 228.267c-55.704 145.778-108.563 281.363-113.304 290.844-3.081 6.163-10.667 15.644-16.83 21.096l-11.141 9.719h76.563l-3.556-5.689c-3.556-5.215-3.081-7.585 9.719-40.77 7.348-19.437 14.222-37.215 15.407-39.585 2.133-3.793 6.874-4.030 59.496-3.556l56.889 0.711 13.985 35.556c14.696 37.215 15.644 41.244 11.615 48.83-2.37 4.267-1.422 4.504 36.030 4.504h38.637l-8.296-5.689c-8.296-5.452-15.407-13.985-21.096-24.652-2.844-5.215-39.111-98.607-97.896-251.733-15.644-41.007-29.393-75.378-30.104-76.326s-8.059 15.644-16.119 36.741zM928 369.304c11.378 30.341 20.385 55.704 19.674 56.178-0.711 0.711-20.385 0.948-44.089 0.711l-42.667-0.711 20.859-53.096c11.615-29.156 21.807-54.756 22.519-56.652s1.659-3.081 2.133-2.607c0.474 0.474 10.193 25.837 21.57 56.178z"></path>
<path fill="#000" d="M1219.081 595.911c-14.459 6.4-17.067 23.23-5.689 34.844 10.667 10.667 27.97 8.059 34.844-5.215 4.978-9.719 4.030-15.407-3.081-23.23-8.059-8.77-16.119-10.667-26.074-6.4zM1240.889 603.259c13.511 13.274 3.081 31.763-16.593 29.63-19.674-1.896-15.881-35.556 4.030-35.556 4.030 0 9.244 2.37 12.563 5.926z"></path>
<path fill="#000" d="M1220.030 603.733c-2.607 2.37-1.896 24.415 0.711 24.415 1.422 0 2.37-2.844 2.37-6.637l0.237-6.4 5.689 6.4c6.874 7.822 9.481 8.533 5.689 1.659-1.896-3.556-1.896-5.689 0-7.585 4.267-4.267 2.844-10.43-2.607-12.089-7.111-1.896-10.193-1.659-12.089 0.237zM1232.119 609.896c0.474 2.844-0.711 4.030-4.030 4.030-3.556 0-4.978-1.422-4.978-4.978 0-5.926 7.822-5.215 9.007 0.948z"></path>
<path fill="#000" d="M530.489 715.378c-1.185 4.030 0 4.267 10.193 3.319l11.615-1.185v27.022c0 14.933-0.948 30.578-2.133 34.844l-2.37 7.585h9.481c8.533 0 9.244-0.474 6.874-4.504-1.185-2.607-2.37-18.252-2.37-34.844v-30.104l10.43 1.185c9.719 1.185 13.274-0.474 13.274-6.637 0-0.474-12.089-0.948-27.022-0.948-24.178 0-27.022 0.474-27.97 4.267z"></path>
<path fill="#000" d="M748.563 740.030c0.711 36.741 1.422 38.874 10.667 44.563 9.007 5.689 20.622 6.163 30.104 1.185 4.030-2.133 7.111-2.607 7.111-1.185 0 1.185 2.844 2.37 6.637 2.37h6.4v-75.852h-14.222l0.711 29.867c0.711 25.126 0.237 30.578-3.081 34.133-8.533 9.481-28.207 7.348-31.052-3.319-0.711-3.081-0.948-17.778-0.474-32.948l0.711-27.733h-14.222l0.711 28.919z"></path>
<path fill="#000" d="M591.407 752.593v34.37h14.222l-0.711-16.593-0.948-16.593h36.504l-0.948 16.593-0.711 16.593h14.222v-68.741h-14.222l0.711 14.222 0.948 14.222h-36.504l0.948-14.222 0.711-14.222h-14.222v34.37z"></path>
<path fill="#000" d="M667.259 752.593v34.37h19.2c15.407 0 19.674-0.711 20.859-3.793 2.607-6.874 1.422-7.822-5.452-5.452-3.793 1.422-10.43 2.133-14.933 1.659-7.585-0.711-7.822-0.948-8.533-13.274l-0.711-12.326h9.481c13.037 0 13.748-6.4 0.948-7.585-8.77-0.711-9.007-0.948-9.007-10.193v-9.481l11.378 0.237c9.244 0 11.141-0.711 11.141-4.267 0-3.793-2.133-4.267-17.067-4.267h-17.304v34.37z"></path>
<path fill="#000" d="M826.074 752.593c0 32.711 0.237 34.37 4.741 34.37s4.741-1.422 4.030-19.437c-1.659-37.452-2.133-37.215 21.333-7.348 11.378 14.459 22.281 26.785 24.415 27.496 3.081 1.422 3.556-2.607 3.556-30.104 0-17.541 0.711-33.422 1.422-35.556 1.185-2.844 0-3.793-4.030-3.793-5.689 0-5.689 0-5.215 25.363l0.711 25.6-6.637-8.296c-3.556-4.504-12.563-15.881-20.148-25.363-9.481-12.326-15.17-17.304-18.963-17.304-5.215 0-5.215 0.474-5.215 34.37z"></path>
<path fill="#000" d="M901.926 752.593v34.37h14.222v-68.741h-14.222v34.37z"></path>
<path fill="#000" d="M926.341 721.067c1.422 1.659 6.874 15.881 12.089 31.526 9.719 27.496 15.881 38.637 19.437 35.081 0.948-1.185 7.585-17.067 14.696-35.793l13.037-33.659h-7.111c-5.689 0-6.637 0.711-5.452 4.504s-12.8 45.985-16.356 49.541c-0.711 0.474-4.978-11.615-9.956-26.548-8.77-26.785-9.244-27.496-15.881-27.496-5.215 0-6.4 0.711-4.504 2.844z"></path>
<path fill="#000" d="M993.422 723.2c1.659 3.319 2.37 15.644 1.659 34.607l-0.711 29.393 18.726-0.711c16.593-0.711 18.963-1.185 20.622-5.926s1.422-4.978-4.978-2.844c-3.793 1.422-10.193 2.133-14.696 1.659-7.585-0.711-7.822-0.948-8.533-13.274l-0.711-12.326h8.296c5.926 0 8.533-0.948 8.533-3.556s-2.607-3.556-8.533-3.556h-8.296l0.711-10.193 0.711-9.956 11.378 0.237c9.244 0 11.141-0.711 11.141-4.267 0-3.793-2.133-4.267-18.963-4.267-18.726 0-18.963 0-16.356 4.978z"></path>
<path fill="#000" d="M1044.148 752.593v34.37h11.852l-0.948-29.63c-0.711-32.237 0-34.133 12.8-31.052 11.615 2.844 10.667 17.304-1.422 22.993l-7.348 3.556 12.8 16.356c9.481 12.563 14.459 16.83 19.437 17.304 6.4 0.711 6.4 0.711-5.452-14.459-6.637-8.533-12.089-15.881-12.089-16.593s3.319-4.504 7.111-8.296c9.007-9.007 9.007-13.274 0.237-22.044-6.163-6.163-8.533-6.874-22.044-6.874h-14.933v34.37z"></path>
<path fill="#000" d="M1106.726 722.489c-3.556 3.081-5.215 7.111-5.215 12.326 0 9.007 4.741 13.748 22.756 22.993 10.43 5.215 11.378 6.4 10.667 13.274-0.948 10.193-11.615 13.511-25.363 7.822-7.348-2.844-9.719-3.081-9.719-0.711 0 6.163 4.267 9.007 15.644 10.193 20.622 2.133 34.844-9.956 30.815-26.074-1.185-4.504-5.215-8.059-15.17-13.037-16.83-8.533-21.333-13.274-17.778-18.726 4.030-6.874 13.274-8.77 21.807-4.504 7.111 3.556 7.348 3.556 7.348-2.133 0-5.452-0.711-5.689-15.17-5.689-11.141 0-16.593 1.185-20.622 4.267z"></path>
<path fill="#000" d="M1160.296 752.593v34.37h11.852l-0.711-29.393c-0.711-18.963 0-31.052 1.659-34.37 2.607-4.504 2.133-4.978-4.978-4.978h-7.822v34.37z"></path>
<path fill="#000" d="M1184.711 722.489c-1.185 3.793 0.237 4.267 8.533 4.267l9.719-0.237v60.444h11.852l-0.711-30.815-0.948-30.815h6.874c9.007 0 10.667 1.422 20.859 17.541 8.296 13.037 8.77 14.696 7.822 28.919-0.948 14.933-0.948 15.17 5.215 15.17s6.163-0.237 5.215-14.222c-1.185-14.933-0.474-16.593 20.385-49.304 3.319-4.978 3.081-5.215-4.030-5.215-4.504 0-7.111 0.948-6.163 2.37 1.659 2.607-10.667 26.074-13.511 26.074-0.948 0-5.215-6.4-9.481-14.222l-7.822-14.222h-26.311c-23.704 0-26.548 0.474-27.496 4.267z"></path>
<path fill="#000" d="M774.163 851.437c-9.007 22.519-17.067 41.956-18.252 43.378-3.793 4.030-2.133 5.926 4.978 5.926 5.926 0 7.111-0.948 7.111-5.926 0-3.319 1.659-9.719 3.556-14.459l3.319-8.296 29.156 1.422 4.030 10.667c2.37 5.926 3.793 12.089 3.081 13.748-0.474 1.896 2.37 2.844 9.244 2.844 9.244 0 9.719-0.237 6.4-4.267-2.133-2.133-10.904-22.281-19.674-44.326-8.77-22.281-16.119-40.533-16.593-41.007-0.237-0.237-7.585 18.015-16.356 40.296zM795.259 849.778c2.133 6.163 3.556 11.378 2.844 12.089s-5.452 0.948-10.667 0.474l-9.244-0.711 4.741-12.326c2.607-6.874 5.452-12.089 6.4-11.378 0.948 0.474 3.556 5.926 5.926 11.852z"></path>
<path fill="#000" d="M628.148 833.896c-4.504 2.133-10.667 7.822-13.748 12.326-7.585 11.378-6.637 32.474 2.133 41.719 12.089 13.037 30.341 16.593 46.222 9.007 18.252-8.77 25.6-34.37 14.696-50.726-6.874-10.193-18.963-16.593-31.526-16.593-5.215 0-13.274 1.896-17.778 4.267zM662.756 844.8c6.874 6.874 8.059 9.719 8.059 19.2 0 18.726-9.719 29.63-26.311 29.63-16.356 0-28.444-18.963-23.704-37.215 3.793-13.748 10.904-19.2 26.074-19.437 5.926-0.237 9.719 1.659 15.881 7.822z"></path>
<path fill="#000" d="M1006.222 832.948c-26.548 11.852-28.207 51.674-2.844 64 24.415 11.378 52.859-3.793 55.467-29.63 2.607-26.548-27.022-45.748-52.622-34.37zM1036.326 841.481c13.985 10.904 14.933 34.133 1.896 45.511-15.17 13.748-37.689 5.215-41.481-15.407-2.37-11.852 0.237-19.911 8.296-27.97 8.296-8.533 22.281-9.481 31.289-2.133z"></path>
<path fill="#000" d="M692.148 862.578c0 16.83-0.711 32.237-1.422 34.37-1.185 3.081 0.237 3.793 6.637 3.793h7.822l-0.711-18.015-0.948-18.252 8.533 1.422c7.348 1.185 8.533 0.711 8.533-3.319 0-3.556-1.659-4.504-8.296-4.504-8.059 0-8.296-0.237-8.296-9.244 0-10.43 4.267-13.511 15.17-10.667 4.741 1.185 6.163 0.474 6.163-2.37 0-3.081-2.844-3.793-16.593-3.793h-16.593v30.578z"></path>
<path fill="#000" d="M838.637 866.37l-0.711 34.37h14.222l-0.711-32c-0.711-31.289-0.711-32 4.267-32 15.17 0 20.148 15.881 7.111 23.23-3.793 2.133-7.111 4.978-7.111 5.926 0 3.556 21.333 29.867 26.311 32.474 9.719 5.452 8.77-0.711-2.844-15.644l-12.089-15.17 7.348-6.874c8.77-8.296 9.481-16.356 1.896-23.467-4.504-4.267-8.296-5.215-21.333-5.215h-15.644l-0.711 34.37z"></path>
<path fill="#000" d="M901.926 866.37v34.37h11.852v-68.741h-11.852v34.37z"></path>
<path fill="#000" d="M931.319 836.978c-2.37 4.504-2.133 4.741 3.081 3.081 6.163-2.37 22.281-2.607 24.415-0.474 0.711 0.711-6.163 13.748-15.407 28.919-9.007 15.17-16.593 28.681-16.593 29.867 0 1.422 10.667 2.37 24.889 2.37 22.044 0 24.889-0.474 27.259-4.504 1.185-2.607 2.37-4.978 2.37-5.452s-8.77-0.237-19.437 0.237c-22.756 0.948-22.519 3.319-1.422-31.526 7.822-13.037 14.933-24.652 15.407-25.837 0.474-0.948-8.533-1.659-20.385-1.659-19.2 0-21.57 0.474-24.178 4.978z"></path>
<path fill="#000" d="M1067.852 866.37c0 32.711 0.237 34.37 4.741 34.37s4.741-1.422 4.030-27.733c-0.474-17.541 0-27.022 1.422-25.6 1.185 1.185 9.956 12.563 19.437 24.889 16.83 21.57 22.993 28.207 26.548 28.444 0.948 0 1.896-15.407 2.37-34.37 0.711-32.948 0.474-34.37-4.030-34.37s-4.741 1.422-4.030 25.363l0.711 25.6-15.644-20.148c-8.77-11.141-17.541-22.519-19.437-25.6-2.133-3.081-5.926-5.215-9.956-5.215h-6.163v34.37z"></path>
<path fill="#000" d="M1159.111 835.081c0 3.319-17.067 48.119-22.519 59.022-3.081 6.4-3.081 6.637 4.030 6.637 5.452 0 6.874-0.948 5.689-3.556-0.711-2.133 0.474-7.822 2.37-13.037 3.793-9.481 4.030-9.481 16.83-9.481 12.563 0 12.8 0.237 16.356 8.77 2.133 4.741 3.081 10.43 2.607 13.037-0.948 3.556 0.237 4.267 6.874 4.267 8.059 0 9.956-1.896 5.926-5.926-1.185-1.422-7.111-15.881-13.274-32.711-10.904-28.919-11.615-30.104-18.015-30.104-4.030 0-6.874 1.185-6.874 3.081zM1170.489 852.148c1.185 3.793 3.081 9.007 4.030 11.141 1.422 3.556 0.237 4.267-8.059 4.267-5.452 0-9.719-0.711-9.719-1.896 0-4.504 8.296-23.941 9.719-22.519 0.711 1.185 2.607 4.978 4.030 9.007z"></path>
<path fill="#000" d="M1215.289 881.304c-2.37 2.37-4.030 5.926-4.030 7.822 0 4.267 4.504 9.244 8.296 9.244 1.185 0 0.474-1.185-1.659-2.607-4.741-2.607-5.689-10.43-1.896-12.8 1.422-0.948 2.607 1.422 2.607 5.215 0.237 4.978 0.711 5.452 1.422 1.896 0.711-2.607 2.37-5.452 4.030-6.4 1.659-1.185 0.711-1.896-2.133-2.133h-4.741l4.741-2.133c3.556-1.422 3.793-2.133 0.948-2.133-2.133-0.237-5.452 1.659-7.585 4.030z"></path>
<path fill="#000" d="M1229.274 882.489c0.711 2.37 2.133 3.556 2.844 2.844s0-2.607-1.659-4.267c-2.37-2.133-2.607-1.896-1.185 1.422z"></path>
<path fill="#000" d="M1223.348 890.311c0 2.607 0.711 3.319 1.422 1.422 0.711-1.659 0.474-3.793-0.237-4.504-0.711-0.948-1.422 0.474-1.185 3.081z"></path>
</svg>
